<mxfile host="app.diagrams.net" agent="Mozilla/5.0 (Windows NT 10.0; Win64; x64) AppleWebKit/537.36 (KHTML, like Gecko) Chrome/140.0.0.0 Safari/537.36" version="28.2.3">
  <diagram name="Page-1" id="-23OFfvdNAb8M-6fDNef">
    <mxGraphModel dx="1042" dy="562" grid="1" gridSize="10" guides="1" tooltips="1" connect="1" arrows="1" fold="1" page="1" pageScale="1" pageWidth="850" pageHeight="1100" math="0" shadow="0">
      <root>
        <mxCell id="0" />
        <mxCell id="1" parent="0" />
        <mxCell id="rBh6Mz1lKL1Tqw7QTOkc-10" style="edgeStyle=orthogonalEdgeStyle;rounded=0;orthogonalLoop=1;jettySize=auto;html=1;entryX=0.5;entryY=0;entryDx=0;entryDy=0;" edge="1" parent="1" source="rBh6Mz1lKL1Tqw7QTOkc-1" target="rBh6Mz1lKL1Tqw7QTOkc-3">
          <mxGeometry relative="1" as="geometry" />
        </mxCell>
        <mxCell id="rBh6Mz1lKL1Tqw7QTOkc-1" value="Plan" style="rounded=0;whiteSpace=wrap;html=1;" vertex="1" parent="1">
          <mxGeometry y="20" width="120" height="70" as="geometry" />
        </mxCell>
        <mxCell id="rBh6Mz1lKL1Tqw7QTOkc-12" style="edgeStyle=orthogonalEdgeStyle;rounded=0;orthogonalLoop=1;jettySize=auto;html=1;exitX=0.5;exitY=1;exitDx=0;exitDy=0;" edge="1" parent="1" source="rBh6Mz1lKL1Tqw7QTOkc-3" target="rBh6Mz1lKL1Tqw7QTOkc-4">
          <mxGeometry relative="1" as="geometry">
            <Array as="points">
              <mxPoint x="60" y="270" />
              <mxPoint x="60" y="270" />
            </Array>
          </mxGeometry>
        </mxCell>
        <mxCell id="rBh6Mz1lKL1Tqw7QTOkc-3" value="Develop" style="shape=hexagon;perimeter=hexagonPerimeter2;whiteSpace=wrap;html=1;fixedSize=1;" vertex="1" parent="1">
          <mxGeometry y="140" width="120" height="80" as="geometry" />
        </mxCell>
        <mxCell id="rBh6Mz1lKL1Tqw7QTOkc-13" style="edgeStyle=orthogonalEdgeStyle;rounded=0;orthogonalLoop=1;jettySize=auto;html=1;exitX=0.55;exitY=0.95;exitDx=0;exitDy=0;exitPerimeter=0;" edge="1" parent="1" source="rBh6Mz1lKL1Tqw7QTOkc-4">
          <mxGeometry relative="1" as="geometry">
            <mxPoint x="66" y="390" as="targetPoint" />
          </mxGeometry>
        </mxCell>
        <mxCell id="rBh6Mz1lKL1Tqw7QTOkc-4" value="Built" style="ellipse;shape=cloud;whiteSpace=wrap;html=1;" vertex="1" parent="1">
          <mxGeometry y="260" width="120" height="80" as="geometry" />
        </mxCell>
        <mxCell id="rBh6Mz1lKL1Tqw7QTOkc-15" style="edgeStyle=orthogonalEdgeStyle;rounded=0;orthogonalLoop=1;jettySize=auto;html=1;exitX=0.5;exitY=1;exitDx=0;exitDy=0;" edge="1" parent="1" source="rBh6Mz1lKL1Tqw7QTOkc-5">
          <mxGeometry relative="1" as="geometry">
            <mxPoint x="60" y="510" as="targetPoint" />
          </mxGeometry>
        </mxCell>
        <mxCell id="rBh6Mz1lKL1Tqw7QTOkc-5" value="Test" style="shape=parallelogram;perimeter=parallelogramPerimeter;whiteSpace=wrap;html=1;fixedSize=1;" vertex="1" parent="1">
          <mxGeometry y="390" width="120" height="60" as="geometry" />
        </mxCell>
        <mxCell id="rBh6Mz1lKL1Tqw7QTOkc-16" style="edgeStyle=orthogonalEdgeStyle;rounded=0;orthogonalLoop=1;jettySize=auto;html=1;exitX=0.5;exitY=1;exitDx=0;exitDy=0;" edge="1" parent="1" source="rBh6Mz1lKL1Tqw7QTOkc-6">
          <mxGeometry relative="1" as="geometry">
            <mxPoint x="60" y="650" as="targetPoint" />
          </mxGeometry>
        </mxCell>
        <mxCell id="rBh6Mz1lKL1Tqw7QTOkc-6" value="Release" style="ellipse;whiteSpace=wrap;html=1;" vertex="1" parent="1">
          <mxGeometry y="510" width="120" height="80" as="geometry" />
        </mxCell>
        <mxCell id="rBh6Mz1lKL1Tqw7QTOkc-17" style="edgeStyle=orthogonalEdgeStyle;rounded=0;orthogonalLoop=1;jettySize=auto;html=1;" edge="1" parent="1" source="rBh6Mz1lKL1Tqw7QTOkc-7">
          <mxGeometry relative="1" as="geometry">
            <mxPoint x="60" y="810" as="targetPoint" />
          </mxGeometry>
        </mxCell>
        <mxCell id="rBh6Mz1lKL1Tqw7QTOkc-7" value="Deploy" style="shape=document;whiteSpace=wrap;html=1;boundedLbl=1;" vertex="1" parent="1">
          <mxGeometry y="650" width="120" height="80" as="geometry" />
        </mxCell>
        <mxCell id="rBh6Mz1lKL1Tqw7QTOkc-18" style="edgeStyle=orthogonalEdgeStyle;rounded=0;orthogonalLoop=1;jettySize=auto;html=1;exitX=0.5;exitY=1;exitDx=0;exitDy=0;entryX=0.5;entryY=0;entryDx=0;entryDy=0;" edge="1" parent="1" source="rBh6Mz1lKL1Tqw7QTOkc-8" target="rBh6Mz1lKL1Tqw7QTOkc-9">
          <mxGeometry relative="1" as="geometry" />
        </mxCell>
        <mxCell id="rBh6Mz1lKL1Tqw7QTOkc-8" value="Operater" style="shape=trapezoid;perimeter=trapezoidPerimeter;whiteSpace=wrap;html=1;fixedSize=1;" vertex="1" parent="1">
          <mxGeometry y="810" width="120" height="60" as="geometry" />
        </mxCell>
        <mxCell id="rBh6Mz1lKL1Tqw7QTOkc-9" value="Monitor" style="whiteSpace=wrap;html=1;aspect=fixed;" vertex="1" parent="1">
          <mxGeometry x="20" y="930" width="80" height="80" as="geometry" />
        </mxCell>
      </root>
    </mxGraphModel>
  </diagram>
</mxfile>
